# xmcd CD database file
#
# Track frame offsets:
#	150
#	7254
#	14232
#	22548
#	30741
#	37983
#	47259
#	56414
#	63319
#	72580
#	80716
#	88584
#	93373
#	99460
#	107458
#	114916
#	124456
#	138891
#	144829
#	153138
#	159716
#	165527
#	176252
#	182990
#	193343
#
# Disc length: 2680 seconds
#
# Revision: 0
# Processed by: cddbd v1.5.2PL0 Copyright (c) Steve Scherf et al.
# Submitted via: CDex 1.51
#
DISCID=440a7619
DTITLE=KIDZUP - SING AND DANCE
DYEAR=2004
DGENRE=New Age
TTITLE0=It's Raining, It's Pouring
TTITLE1=The Grand Old Duke Of York
TTITLE2=The Farmer In The Dell
TTITLE3=Did You Ever See A Lassie ?
TTITLE4=One, Two, Buckle My Shoe
TTITLE5=Boom Boom Ain't It Great To Be Crazy ?
TTITLE6=Where Is Thumbkin ?
TTITLE7=Oh Playmate
TTITLE8=H-A-P-P-Y
TTITLE9=Ten In A Bed
TTITLE10=Looby Loo
TTITLE11=Happy Birthday
TTITLE12=Miss Polly Had A Dolly
TTITLE13=Baa Baa Black Sheep
TTITLE14=Down By The Bay
TTITLE15=Five Green Bottles
TTITLE16=The Ants Go Marching
TTITLE17=Itsy Bitsy Spider
TTITLE18=S-M-I-L-E
TTITLE19=The Old Grey Mare
TTITLE20=Little Jack Horner and Little Miss Muffet
TTITLE21=Mary Had A Little Lamb
TTITLE22=Simple Simon
TTITLE23=Billy Boy
TTITLE24=Twinkle Twinkle Little Star
EXTD=YEAR: 2004
EXTT0=
EXTT1=
EXTT2=
EXTT3=
EXTT4=
EXTT5=
EXTT6=
EXTT7=
EXTT8=
EXTT9=
EXTT10=
EXTT11=
EXTT12=
EXTT13=
EXTT14=
EXTT15=
EXTT16=
EXTT17=
EXTT18=
EXTT19=
EXTT20=
EXTT21=
EXTT22=
EXTT23=
EXTT24=
PLAYORDER=
